<?xml version='1.0' encoding='utf-8'?>
<!DOCTYPE svg PUBLIC '-//W3C//DTD SVG 1.1//EN' 'http://www.w3.org/Graphics/SVG/1.1/DTD/svg11.dtd'>
<svg version="1.1" xmlns="http://www.w3.org/2000/svg" viewBox="0 0 512 512" xmlns:xlink="http://www.w3.org/1999/xlink" enable-background="new 0 0 512 512">
  <g>
    <path d="m457.4,279.7c-16.2-38-33-75.3-51.1-113.8 18.1-35.6 35.4-66.4 51.1-95 3.4-6.2 6.1-23.6-11.8-29.7-25.4-8.7-53-11.5-83.5-11.5-36.9,0-73.6,5.5-109.1,10.8-35.6,5.3-69.2,10.4-103.1,10.4-20.7,0-39.5-2-57.2-5.9v-13.6c0-11.3-9.1-20.4-20.4-20.4-11.3,0-20.4,9.1-20.4,20.4v449.2c0,11.3 9.1,20.4 20.4,20.4 11.3,0 20.4-9.1 20.4-20.4v-164.5c18,3.4 36.9,5.1 57.2,5.1 36.9,0 73.6-5.5 109.1-10.8 35.5-5.4 69.1-10.4 103-10.4 26.5,0 49.7,3.9 71.8,9.7 18.5,4.9 32.1-15 23.6-30zm-95.4-20.5c-36.9,0-73.6,5.5-109.1,10.8-35.6,5.3-69.2,10.4-103.1,10.4-20.7,0-39.5-1.9-57.2-5.9v-187.8c18,3.4 36.9,5.1 57.2,5.1 36.9,0 73.6-5.5 109.1-10.8 35.6-5.3 69.2-10.4 103.1-10.4 16.6,0 32,1.2 46.6,3.8-13.8,24.9-28,51.9-43.3,82-2.8,5.6-2.9,12.3-0.2,18 14.1,29.7 27.3,58.6 40.1,87.7-13.8-2-28.1-2.9-43.2-2.9z"/>
  </g>
</svg>
