<?xml version="1.0" encoding="utf-8"?>
<!-- Generator: Adobe Illustrator 19.0.0, SVG Export Plug-In . SVG Version: 6.00 Build 0)  -->
<svg version="1.1" id="Ebene_1" xmlns="http://www.w3.org/2000/svg" xmlns:xlink="http://www.w3.org/1999/xlink" x="0px" y="0px"
	 viewBox="75 -73 512 512" style="enable-background:new 75 -73 512 512;" xml:space="preserve">
<style type="text/css">
	.st0{fill:#FF0000;}
</style>
<g>
	<path class="st0" d="M524.4,203.7c-16.2-38-33-75.3-51.1-113.8c18.1-35.6,35.4-66.4,51.1-95c3.4-6.2,6.1-23.6-11.8-29.7
		c-25.4-8.7-53-11.5-83.5-11.5c-36.9,0-73.6,5.5-109.1,10.8c-35.6,5.3-69.2,10.4-103.1,10.4c-20.7,0-39.5-2-57.2-5.9v-13.6
		c0-11.3-9.1-20.4-20.4-20.4c-11.3,0-20.4,9.1-20.4,20.4v449.2c0,11.3,9.1,20.4,20.4,20.4c11.3,0,20.4-9.1,20.4-20.4V240.1
		c18,3.4,36.9,5.1,57.2,5.1c36.9,0,73.6-5.5,109.1-10.8c35.5-5.4,69.1-10.4,103-10.4c26.5,0,49.7,3.9,71.8,9.7
		C519.3,238.6,532.9,218.7,524.4,203.7L524.4,203.7z M429,183.2c-36.9,0-73.6,5.5-109.1,10.8c-35.6,5.3-69.2,10.4-103.1,10.4
		c-20.7,0-39.5-1.9-57.2-5.9V10.7c18,3.4,36.9,5.1,57.2,5.1c36.9,0,73.6-5.5,109.1-10.8C361.5-0.3,395.1-5.4,429-5.4
		c16.6,0,32,1.2,46.6,3.8c-13.8,24.9-28,51.9-43.3,82c-2.8,5.6-2.9,12.3-0.2,18c14.1,29.7,27.3,58.6,40.1,87.7
		C458.4,184.1,444.1,183.2,429,183.2L429,183.2z"/>
</g>
</svg>
